<svg xmlns="http://www.w3.org/2000/svg" viewBox="0 0 512 512" role="img" aria-labelledby="title desc">
  <title id="title">Wijutopia card game store logo</title>
  <desc id="desc">Circular burgundy Wijutopia logo with a large white W, two stars and card game store subtitle.</desc>
  <defs>
    <filter id="softShadow" x="-20%" y="-20%" width="140%" height="140%">
      <feDropShadow dx="0" dy="14" stdDeviation="12" flood-color="#100817" flood-opacity="0.35"/>
    </filter>
  </defs>
  <circle cx="256" cy="256" r="244" fill="#6B073C" filter="url(#softShadow)"/>
  <circle cx="256" cy="256" r="225" fill="none" stroke="#FFFFFF" stroke-width="14"/>
  <circle cx="256" cy="256" r="199" fill="none" stroke="#FFFFFF" stroke-width="4" opacity="0.95"/>
  <path fill="#FFFFFF" d="M95 124h74l38 100 49-100 49 100 38-100h74L312 318l-56-103-56 103L95 124Z"/>
  <path fill="#FFFFFF" d="m96 244 10 23 25 2-19 16 6 24-22-13-22 13 6-24-19-16 25-2 10-23Zm320 0 10 23 25 2-19 16 6 24-22-13-22 13 6-24-19-16 25-2 10-23Z"/>
  <text x="256" y="383" text-anchor="middle" font-family="Montserrat, Arial, sans-serif" font-size="45" font-weight="900" letter-spacing="8" fill="#FFFFFF">WIJUTOPIA</text>
  <line x1="122" y1="415" x2="216" y2="415" stroke="#FFFFFF" stroke-width="5" stroke-linecap="round"/>
  <line x1="296" y1="415" x2="390" y2="415" stroke="#FFFFFF" stroke-width="5" stroke-linecap="round"/>
  <text x="256" y="424" text-anchor="middle" font-family="Montserrat, Arial, sans-serif" font-size="16" font-weight="700" letter-spacing="1.5" fill="#FFFFFF">CARD GAME STORE</text>
</svg>
